# xmcd CD database file
#
# Track frame offsets:
#	150
#	19497
#	29515
#	50034
#	60807
#	80685
#	108843
#	133489
#	153964
#	181477
#	213385
#	253702
#
# Disc length: 3727 seconds
#
# Revision: 0
# Processed by: cddbd v1.5.2PL0 Copyright (c) Steve Scherf et al.
# Submitted via: CDex 1.51
#
DISCID=a90e8d0c
DTITLE=Various Artist - Ready or Not 2 - Deep Jazz Grooves from the CBC Radio Canada Archive
DYEAR=2006
DGENRE=Jazz
TTITLE0=Yvan Landry and his Trio - Ton Visage
TTITLE1=Nick Ayoub - Perception
TTITLE2=The Montreal Black Community Youth Choir - Tryin' Times
TTITLE3=Billy Robinson - Quebec on my Mind
TTITLE4=Fred Stone - Maiera
TTITLE5=Emilie Normand Sextet - Mas Que Nada
TTITLE6=Sunship Ensemble - Atlantic Rising
TTITLE7=Ted Moses Quintet - Hidden Strength
TTITLE8=Alvinn Pall Sextet - Melancholy
TTITLE9=Bernie Semensky Trio - Beloved Gift
TTITLE10=Sadik Hakim - Greek Street Break In
TTITLE11=Elizabeth Shepherd Trio - Ton Visage
EXTD=YEAR: 2006
EXTT0=
EXTT1=
EXTT2=
EXTT3=
EXTT4=
EXTT5=
EXTT6=
EXTT7=
EXTT8=
EXTT9=
EXTT10=
EXTT11=
PLAYORDER=
